<mxfile host="Electron" modified="2024-02-15T08:37:48.897Z" agent="Mozilla/5.0 (Windows NT 10.0; Win64; x64) AppleWebKit/537.36 (KHTML, like Gecko) draw.io/21.2.8 Chrome/112.0.5615.165 Electron/24.2.0 Safari/537.36" etag="yJ_FLdKq70rEB1W555v3" version="21.2.8" type="device">
  <diagram name="Page-1" id="2XWkQP5S-hDbL94sL5Vg">
    <mxGraphModel dx="2058" dy="1180" grid="1" gridSize="10" guides="1" tooltips="1" connect="1" arrows="1" fold="1" page="1" pageScale="1" pageWidth="3300" pageHeight="4681" background="#999999" math="0" shadow="0">
      <root>
        <mxCell id="0" />
        <mxCell id="1" parent="0" />
        <mxCell id="APLwThIm-aDqV8bCMrbt-1" value="RangeSlider" style="rounded=0;whiteSpace=wrap;html=1;fontSize=25;fillColor=#dae8fc;strokeColor=#6c8ebf;" parent="1" vertex="1">
          <mxGeometry x="1298" y="140" width="650" height="60" as="geometry" />
        </mxCell>
        <mxCell id="IVAUeztGk1OZdHD91gk5-1" value="" style="shape=image;verticalLabelPosition=bottom;labelBackgroundColor=default;verticalAlign=top;aspect=fixed;imageAspect=0;image=data:image/png,iVBORw0KGgoAAAANSUhEUgAAApEAAAEzCAYAAABpF1izAAAAAXNSR0IArs4c6QAAAARnQU1BAACxjwv8YQUAAAAJcEhZcwAADsMAAA7DAcdvqGQAAB8JSURBVHhe7d1/zCRnYR/w533Pd4dtbGNzR12awJk7/zbIOKVU+SFCBEiUGBBIUZpESSiJLP5oRENKkwpBQBFJSWjSJAShipKkgaRRoYCDkooWJw2JRCuBm4IDNubOriG2z67t82Hf+e78dp5nZnZn993dd5/dd3f2x+dz7+w888zszswzs7Pfm9l5340bXviirULoUQz31RRVO08z3PhTbjPFUyfVwixbsB4Nux7bElhkG1V/ruY+01bWcqlM3EJTNe14T05TbfROWw526wZOc/0NL+z9nO0Lh6PDY1Uqen1TLbkJ12aKRlit9puFFlpoTTaKfY+29H4cLbhWFnapWmjupmqdiZ+8OtskrUn3ISkHe9exGSb7x/eGyL6AuD0/1hVVv+j1TTLEeFMNNOFTp5hjS+a7osvXPutiibaMnWjx9B77GUgjjdJK60w80+Xalou3muULp8fuQ7IxIkhG9fhOiOw949gXIPvCZfVT6R9eFFMs0YRPXbw2GGX+7TON5WrbNmgh1knvBxzbTdxC83/iUunLVpkWr42a4bBbbA6X5WhQkNy4/vob+k449gbI/rOP3cFmsIx6h3qMGLWTKZ46ub4WGVcry9qKCdd0TRpoffYDYBzdj905mnimrSzt3LXTPJM9eXaz7I5MpSowbguL6WHIuOuKEFmVC40A2RMSi1L5k8q9Gat/eJAdJxhuwqdOMccprMt6roslat0l2xHst7PRPbSvuFZWdG1ad+4mbtmpNsn8t+cirmcaWwXEqA6JVa9+6JmuGSQ7IbLncnZfgOyMKgrn7d0bLrzwgrBv776wb/++sGfPnpl+IjSXhAGWqnnmv7D2HqBt5cftvLUz14ks0aK2oYp0s1G89Llz58Lp06fDU0+dCU888UQ4e+ZMUV/OsycwpoeyHKXL2TFEjhsgL7roonDJsy4JDz/yRHjy9NlwqujOnDlXTcDOuo0/XrxpTj9Izmv0T7vTa09jp+WK8x5n2VfYRM2/LG2228s5y/WexWtP/prD3q1R7y4zyzYZ1yIsw7iWaVlnTVvQa+9554Vn7N9bdPvDgcsuCY8++lh4/MSJ4qBTHnVGBsnrrr++8bXHwQEyTnDgwIGi5rzwd8dPFGlVcMzTbfBeo97Mw57TL/c16unHff1co5aHHtmbYFDb1i+yKO2+28sx6/VarOUdtTW37y6zbpudtD3/HMu0rLOmLRhu397zwuUHnx3O27MRHnzweFVbHH/SAag8CpXFsrw5OkDG/la4+KKLitJ54Z5vPiJALr244cuNz7JbxO1o39oNy9GKtjWsmqfOnA33fuuBcPZcefW5PMvYzYSdx7IibKbHpmJEPXHsx9Oc8RJ2PAPJMhl2gI8bt9z4sxHnO2ze9bhh49dM9mZottsit+FubuNZrucs3ge7t7zNV5plK0xulseR3baYLQiL6v7jD4dnXXJJyoDNTNj/vk8hMibNsrrux7qyf+EzL0zfgXQGchq9jd416sA27Dk7ia857HUnfc1J1MvR7Jr6hxnPoLac53Ztw3rsK4PWctDWXgzLuM+tx34EuyGekXzokcfCBRdekIbrTNgJlNXAZmdMVI9sTB3vwo430TCtRjv32M2PiVGvM2z+04qvO6vXXgOab0yrEwAGveOXZ+2WfYcd1PrAIKdOn04ZsM6J9aXt+hAQe5tVOU2UynVFNRx/jU+8C5txDTtIrfKBazfXbVj7MVjnHcySiFssdvWebm9nvux1jOfU6TNh//795adMFSTjQHN445prr0tVZcCsgmQ9XPQPPf9Q+MpdD6TaYS6+6Pyw97ztX6/cyZmz58KJx09VQ6sm901atnxXzvPjc5fxoLDTOvePX1FTbbpFbaPdXq5Ff72m8V97undtG9u+jXnOwqqsx7S0A6Ndd+RQOHbPsaK00blDu9lPIbL37puiVBVi/9Ch54c77nowDQ/z67/2nnD4yOFqaLD6j3V/8/6HOvP59omHw8/+3DvD5uaesmLhjXPIr9+U40xbq59Ty3nushvVXv3tsqKm2tyL2ka7uVyzWMdZttv4r11v+kHP2Hm3mOU6DNPGPGdhVdZjN2gLhrv2yPPDsWP3NIJjeWSqh7vfiaz3o0aAHNezLrkoXH/NlSO7664+krpXvuwfh1d9f9kdPPDsYj5PV6+y6HY+pE8nvn7drZt1XOfd1tx/ml0bdvNDaTdfqzaL1wSWyXve9Y5wz113hPu+8bWBXRwXp1k0f/W5Pwvf/dJ/VA1tF8d9/r//WTW0W7afZKwPo/nXoAfYs2cz3HPvg+HfffSvwm/+4efDb/2nvwy//Z//R/jAf/nzcPQb94Unv/14OP7A/al74uTj4T/+179J3U6+/MW/CN88enun+6V3/3w1Zr7K5fhS6n7p3f8q1b35J/9p+Pxtn0rlWBfHDdKcbj3FPW3Uh3ZbQWdBTL36bYZFgOX0Ez/2I+GV/+R14bobXzKwe9krXp2mWTT/8hfeGX7rN35tYJCMdXHc2//1O6ua2duVELkR/23sCUcfOxmOPf54uOeJE+H/nn4s3Hfm0XDmzNPpbGP8tmX8V9uzb7xfGfSGH/pn4R9ccWPqv+nHfzi89CU3VWPm4/O3fTr8+m9+qFiGF5fdc/9+NabrHe/6N2lcaZIP9VUNAc3wOCpIMhvafLDFe7/lL1Fb23ZVjlWresxlXHv27An3P/BAOHHixMDu2D33pGkWzV9/4X+Gf/7Wn9sWJOsAGcfFaealvDt7q4533X7ZK/pVcZRzT5eXpA8+e3/Y2Hc2PHb2RDh+6uHwwJPln8zZ6HuNZ1x6Klxw4IlqaDxf+F9fDEeP3VsNTSseQOputPjLNj/8ux8rSuVKvOmn35r67GTQjjPGztTDgZ712Qeaa7rYa70q28TxheXUHyRnGiDjx3b66C4eOl9zrLJiMbwrZyLrl/3bB+4LRx/9u/Do2UfCk+Hx8NTGyVS/Vb1X4xnL6MJnnQwXPLMcN643/+SPpEAXw2QUzxDWl7nj5eZarI+Xvetxt37i96sx5WuU9V9Kl5hjF+vikr30Jd/VeU7s6jOeR4/d0/P6g/Rfso7zrC9/f+/3vLSqLTXHNZctDn/k3/9G6s/7bOvuq/eIQUaNG2SFD/SDVi02T24TrbxZ7AOz2q/G33iDliDWzWrJdtdyLOXOlqfFoakZJNs4A1nbpcvZpSeL0Lj3/DNh7zPOhPP2PxX2Fl1SHFfrABldc/A7w5FnvaAaGu0Tf/wfimB1e3jTT/xwuOGml1W1IXzvy1+bLnPHLga95vclX3/zqzvjbnrxizqh7D3vent457vfly49f+T3/ihcceh5qT76xB9/uPOceOn8/e/7xVR/8xt+PHzy1j9Ny9AMfcPEIHjppZekecTuyiNXVGPKcQ89/P8646IYQJtifR2UV1P/AVtiSvrD49TNskrtunr7yGrEFuFrNcTtOKgbX/9NKcM6Vs+uhMhaCo9Ft3d/7Bohstgfmx8DRy49nLpx1N+JjIGveYaue1bx9hQUm+J3GGvxEvgN11+Tpo/lD//uH6b62K8vj9dBrn69GFybAbP5ncedbpKJoTEG1FqzHMe96hUvK+ZRnom86cUv7DlTuTqXygcdhEYdmEaFhNULEB1x1epuZez2yqzw9qclg/apYcemdTZ+m3zHC64eq2P3NC9hNy9tz9uuhsgyQJbhcV/s7ytDZP17KEtb4akzZ8KTT+b9kvGP/P4fdc4OxkD4L37mlhQuY/fFL+18p3f0yCOPVqXtYqCszxDWXX/wiWcl4yX1nS43f/krw//HVZ8JrbvV/o5l3X7jHIwGHdhXNECM0xzjTLNwlml7tbesS7lpV0b3c2g7W2Y7bbKI+r8D2f8dyXnanRBZ7GenTz8ZXnrgcPiHl14Zbrr4qnDjhdeGF51/faovJyl3xpgnn3766c7NOON6x7t+JQW48juMITz62GOpH/WfiRzky1/5as+l7Xj2sT7bGM9KxnL/peWoeQk7Pjdeqh51ufmRRx4L7/iFbjCMl+Frd339aM8w/ZoH9mEf8nE/GtStidgsw5om2XGCGWljnutsjfb5XdO/jw7aZ9fseLLGzp07Fy679NJqaLvLL/97aZpFM+wmmraCZAqRnbdSKmyVN+AUD4PeYoPEPHjt1d8Zbnn5K8ItL3tV+Onve3X4qe97bXjz97wuXHP1d4QLLrgwPOc5B8Nlz74s7N23N4XIzc38N2r8bmL8XmO8WzoGyvry8zhnImPwi2cz43cf46XkGOaad3vHM4TxtetLzXV4jN9hrOvic9/wQ29O9cPEs5UxkNbPicGxVp91rMfFbqezmuuluU+s8IF83DcWsEu86SZXB+v+brn93h98LPzFf/vTgd/djN0X/vK2NM0iiX8t5n3vfc+2AFmrg+Sv/vJ7qprdUUXD7ruoKsTextXXXLvV/Q3kMTj2hsgrDh0Kd3x99J89fOvP/FR48Y3DzwZubm6mLqb65l/C+Zv//eXwq//2d8LmnvOqmlnavtN/+Yt/Ht58y8+u+I0sy6y7r3QNOngNmm7J7bSaQ4/hbbXFrOa7bK8bjX7t3fv4bWtbNy3CMoxr1LL2b5VlWq82aad5i0GymaNm7drDzw9Hjx0r3yHFvOP863Lq7UaITL9M/OnyF4rniIuyUYTLjY3d/GrmeIfoeKf0S77rxnDDTd9f1bB4Bu1Pa3Cwj6s4arVG7uJttscs5r0sr9m08+uPd5QaR5vbO2p7/rlGLW9zqyzberVJW62yuYTIxbDzYTmeeYzfaayVN8+wuAYdnFb8QF+v3rBV23E3b7NNZjXv3X7dWbfRzq+/89Eqxypu81kbttw7vQHZTlutsp1C5K7enb3o4lnH5p3RLLqdPmp3Gr+kHJOX3IrulwOt07oyWNwHBnWsgxUKkT55F1PcLruxbYYdmFbsgLW0u/GsFtz7erjdem9Naxnff8OWeVHadBWs0HGZodbqTCTzthsH4xULiSyAdven1dybl3GtHFdmTxuvus3yC5BRdVtM9VDWxsd6/DJYpmVddf3bYtbbxsGqPd5386fNd0c8bow6duw0HlZbSoPVPTLpuNMsF3bpTOQivcnKFWPROBBPbe2acJnfy+u4v3uPM0jcLwZ1rIJdCpGLdLC3cy6GRTlgtD3/XTLWKrT1Ply29p1HO/nP7GqI29G2nI0VOC6zCt+JrENC3bG+mtt/hfYHuzXb2ClYBfbjZbeAIbL+8B9n57ID0m/YvrOk+8rUiz2sPRbdrM7+rNJZyCXdp4GVsXH11ddUt9ZsNX7JeFUu+vGXjX/2s5+NAwAArIlXvPKV4djRY0VajL9oPP7XNT6U5Ti02fk/cxUaq14Sg2RnPAAAa6XOgd1M2A2Hfk8kAADZhEgAALIJkQAAZBMiAQDIJkQCAJCtCpHlXdndX/HTGUg/AACsmTIQVpkwFstcWA05EwkAQD4hEgCAbEIkAADZhEgAALIJkQAAZBMiAQDIVobIdK92fcN2aUAVAADrpMiCzThYlmPlljORAADkEyIBAMgmRAIAkE2IBAAgmxAJAEC2FCLjnTbl39be6t51U5UAAFhPnVxYBMVuuax3JhIAgGxCJAAA2YRIAACyCZEAAGQTIgEAyLZZ3pZd3m/T6VVV8T6c+l4cAADWR5kBUyDspsFO2d/OBgBgAkIkAADZhEgAALIJkQAAZBMiAQDIJkQCAJBtM92mXd23XZbrG7frBwAA1lGMhZ04WAx0y85EAgAwASESAIBsQiQAANmESAAAsgmRAABkSyGyvNOm/7G6A6esAABgnXQyYFFo3pldlGLZmUgAALIJkQAAZBMiAQDIJkQCAJBNiAQAIFsRIqt7bVKvWQYAgKYiJFY50ZlIAACyCZEAAGQTIgEAyCZEAgCQTYgEACCbEAkAQLbNnt/qUz10ylvpIQ4BALBWigwYs2D5U2qUnYkEACCbEAkAQDYhEgCAbEIkAADZhEgAALKVITLdhV3dbVM91HfeAACwvjqZsMiLzbIzkQAAZBMiAQDIJkQCAJBNiAQAIJsQCQBAts3uXdhlKT1WD+U/AADWTcyA3XS4PRE6EwkAQDYhEgCAbEIkAADZhEgAALIJkQAAZBMiAQDIlkJkumk73b3dvZG7cyd33QcAYH3UgTD+lL1quPwVkM5EAgCQTYgEACCbEAkAQDYhEgCAbEIkAADZihDZudem0hjuVgIAsIZ6MmL5kzgTCQBANiESAIBsQiQAANmESAAAsgmRAABk29x2B3ZjuCz2TwAAwDqIfzO7oy8SOhMJAEA2IRIAgGxCJAAA2YRIAACyCZEAAGQTIgEAyLbZ/TU+W907t9P93H33cQMAsEbqLFj0q9/1033cciYSAIB8QiQAANmESAAAsgmRAABkEyIBAMiWQmT3j2s379DuPAAAsGbKFFg8VnGwMxwfi54zkQAAZBMiAQDIJkQCAJBNiAQAIJsQCQBAtm6IrO68iYVGsVsGAGC9VEGwJw9WA85EAgCQTYgEACCbEAkAQDYhEgCAbEIkAADZhEgAALIVIbK8Tzs9xofqtu2qBwDAGuskxa3edOhMJAAA2YRIAACyCZEAAGQTIgEAyCZEAgCQbbN5G3a3GEtbzVEAAKyZbVmwqKjrnIkEACCbEAkAQDYhEgCAbEIkAADZhEgAALJtlnfYxMdt998UGrfgAACwZnozYlkq65yJBAAgmxAJzNXb3/72cMUVV4TnPOc5O3Zxujg9JW0HLJKNFxw+shVPSW5txa6oif3O8FY4/ILD4bbbPldODTClGG6uvvrqcOjQobC5Ofz/sU8//XQ4duxY+NrXvhaOHj1a1a43bQfM08t/4AfC3XffHTY2Nsqu+FcU4k8adiYSmKtvf/vb4XnPe154/PHHw4MPPji0i+PjdHF6StoOWCRCJDB38X+wp06d6lzxGNTF8XE6emk7YFG4nA0r7kMf+lD44Ac/GL71rW9VNe17/etfH44fP16U4jWRsm6QgwcOhE9+8pPhql/5P1XNervz519Ytt1DD1U1QxTH7oMHD6a2a8tzn/vc8Ja3vCXccsstVQ2wbHa6nF2GyE5wjMee9NAJkkIkLLcbb7wxvZcvvPDCqqZdX//618PrXve6MkTGI1EU/wM7QAxCn/rUJ8PxW/66qllvBz/03UXb1QF8iNikRXsePHigaLtPhSNHjpT1c3by5Mn0vc3bb7+9qgGWzctfXoTIbxQhMv4rk2MZHmMx/hMiYbXFO3Wvu+66aqh9d9xxR7j55pt7Q+QQMUTe+ulPh+Nv/duqZr0d/I1rw82vfe3oEFmJZ3FvvfXW1rZ9vLnnq1/9avqOJrCcdgqRvhMJKy5eVjxx4kTYs2fPQnRR/A/quF2y93xd7AqD2mhb93TZjwZtg3l08eaeuO8Bq8uZSFhxi/idyNe85jXjfSfy4MHwmT/5E9+JrMTvRL7mB39w5zORxbE7td1nPlNVzJ/vRMLyczkbWCjx8no3RI5WByGXREvaDpgnl7OBhXPu3Lmwf//+9B/VYV0cH6ejl7YDFkU3RJZfn0lSMT406gB2wwUXXBDuvffecP7554cDBw4M7eL4OF2cnpK2A+auyoKDImH3cnbsior6f7J13eHDLmcDu+dtb3tb+PjHPx6eeOKJqma4GILe+MY3hve///1VzXrTdsA8pcvZ1e+J7F7K7l7OFiIBANhmpxDpO5EAAGQTIgEAyCZEAgCQLYXI7h036VuRnRIAAOutNxMWQ+WPM5EAAOQTIgEAyCZEAgCQTYgEACCbEAkAQDYhEgCAbJ0QmW7f7tzD3SkAALCWmnkwlouuUeVMJAAA2YRIAACyCZEAAGQTIgEAyCZEAgCQbYwQ6U5tAID11ZsF6yFnIgEAyCZEAgCQTYgEACCbEAkAQDYhEgCAbEWIjPfYlPfZpMfO4Fa3CADAWilzYCMJFsXu0JYzkQAA5BMiAQDIJkQCAJBNiAQAIJsQCQBANiESAIBsm807t6Pewb6RAACslxgHi64/FToTCQBANiESAIBsQiQAANmESAAAsgmRAABk2xYiN6p+eQtOZwgAgHU0JA46EwkAQDYhEgCAbEIkAADZhEgAALIJkQAAZCtDZLoTu/yLiL1/F7H/ryQCAIAzkQAATECIBAAgmxAJAEA2IRIAgGxCJAAA2YRIAACydUOk3+YDAEBTzIfbMmJZ4UwkAADZhEgAALIJkQAAZBMiAQDIJkQCAJAthcjuTTdlqTO87W4cAADWzbZIWFQ4EwkAQDYhEgCAbEIkAADZhEgAALIJkQAAZNuMd9tslOWKW7IBAOgXM2LRlT/ORAIAkE+IBAAgmxAJAEA2IRIAgGxCJAAA2YRIAACybcZf7+OX+gAAkMOZSAAAsgmRAABkEyIBAMgmRAIAkE2IBAAg26Y7swEAGCj+Gp+OaqDoxZIzkQAAZBMiAQDIJkQCAJBNiAQAIJsQCQBAtiEh0j3bAABrb1AkLOpitTORAABkEyIBAMgmRAIAkE2IBAAgmxAJAEA2IRIAgGxDQmT3D2wDAED/7/txJhIAgGxCJAAA2YRIAACyCZEAAGQTIgEAyCZEAgAw2Ijf1CNEAgCQTYgEACCbEAkAQDYhEgCAbEIkAADZhEgAAEYqb9LuvVVbiAQAIJsQCQBANiESAIBsQiQAANmESAAAsqUQme616T4AAMAA3azoTCQAANmESAAAsgmRAABkEyIBAMgmRAIAkE2IBAAgWwqRW6lY2/DbfgAA6NGJhkUhlp2JBAAgmxAJAEC2FCLL05ODrl9Xl7YBAFhPMQz2B8JieDPVpYfym5HdYQAA1lWMg4NPJ5Z1jcvZjYmqO21izdlz58Lx48fLCgAAVl7MfmfPnquGBqtCZCNAxmIaLOtOnzod7rzrrlQGAGD1xex36vSpaqjKiUWvKiU9N9Y0R9Tl00+dDnfdeWc1BADAqovZ76nTT6VymQmrZNgJixtFiByUHBsTnnz8ZPjoRz8W7rvvvrIOAICVFTNfzH4nT55sZMOoHKirNjsVqRcfqlFV78yZM+H+++8Pv/2BD5QVAACsrJj5YvaLGTApMmEVCwvlQBzec+lll/1id0SpGyhL8Zr4ww89HO6+++5wzTXXhIsvvrgaAwDAKohnIN/73l8On7vtc+Hhhx9OdRsxFBZd6qX02C1vvODwka2wVfzEf/Gu7GHlwiWXXBwuv/zy8GM/+qPhyiuvDFdddVU4ePBgORIAgKUS78K+8847w1133RX+4KMfTWcgTzx2ohzZExzL8JhqUlXRP1yEyEGhcaus2Fa/d+954aJnXhT27d8XnrH/GWHPns1iTJp0hJEjR5r4mZPPcgrzn+lyrWYrSzt3a7LrFdZje7YjHalXXwuruSYtW5hwTddmm8x/rmUAm7cRMy1GxbHx1/icPn0qnH7qqfQdyDNnzpYhMU1QBcZOuRxONbF8+EgRIovPgsGhMY4ox8V/5U+jvnzo9IdJ4yc14VPbmOc0Jl7eiZd18pVsoXmWa5ssmzVZTXaQPhgYJn2IztsUs5z8qcuznm1sk3Rpd96mmOXINipGpfFVMCzLZT+tZ6euOb6vfPjIlUUmLD5FOsGxeOFmOfXj+FTqKW/rD5GeM29TzHLUuozUymquwbJOo4VZTqOVNoKWpA+idTDhak7XOq3MdCKt7AcTN88Uy7pg80yvm36a/eKxWReH6/r4nDSyLKd+J0TGj6/Uix9jRSH+bCv3jY//ysr0M0z1zMlM+NR1meekplrWSbUwy2lmumSLy4y08V6pDtEM00LzTDfLCZ+9RLtBK/vsFLOceHlXaZ5pVDFF0U/TdfrNurKchmI5FbvjU4hMh8l4nKwC4rBy+dPtp/DZqBsmjZ+3KWY58fK2spprsKzTaGGW08y0lcVdF8vUuOlIvfraWc0W5trKLOc80ylmN/dljSac5VTL2sY8R6lC4bZL12lcObzjZe0j8UxkcXTthsXYS49lXeoXhfRT9avpyunrcSOULzSRak7zNeEsp1rWOa/mMi3rNFrZf6axZIs7ubVZ0TkrjurrYMlWM33oztucZ7ls6zjx8i7ZPEc9OY0pHtJy9QTE3ro0FMup2FdXhsjikF4+Vnmv6hcP28ZVdWW/KKWfsj9M9YzJTPjUqeY5qalWc87L20rzLNc2mVQr68nstLE500GaYaqPs+XRwuLOvY2WbR0nfGor+16Z2iYy8pnFyLQ+8SfNo1q7/qDYqEtDzbojV8bvRMah4qMv9quQWFVW/ea4opB+BvSHGTFqJyNfd5Qp5jmpiZd1CvV2mqsWZjmpNrbJMrVPW1rZLmugOrQzSgtN1Mp2WaJdoQww8zXxNplqUSd78qxmmdog/TT7VcvEfqOurOodl8bGEBmP5/GQnhMcy0mr4ep5w6TnTWrCp7Yxz2lMtbyTmKp5WmigSa3DtpzWki0uM1J+TiyF6qNsebSwuHNvo3VYx6gKVJOY+JlTrObINipGpfFpkqLUGC771bObobFa/zpQFiHyquIzr/rY6+vXYbL8SZN1xnX6jfpZqOeSbYrFmXie05jzLJdtHVtZ3kkt0aKuk2Xah6pDN7OwRE071X4w5/VsZZ9tZZbz3yYza9viZcswWL1+FQxTP45LE9T93nFlbQj/H/2T1qxRSSuuAAAAAElFTkSuQmCC;" vertex="1" parent="1">
          <mxGeometry x="1298" y="210" width="657" height="307" as="geometry" />
        </mxCell>
      </root>
    </mxGraphModel>
  </diagram>
</mxfile>
